<svg width="48" height="48" viewBox="0 0 24 24" fill="#25314C" xmlns="http://www.w3.org/2000/svg"><g><path d="M4.95 17.212A7.5 7.5 0 0 1 3 12c0-5 4.03-8 9-8s9 3 9 8-4.03 8-9 8a10.985 10.985 0 0 1-3.59-.58c-1.34 1.43-3.53 1.62-4.95 1.57a.478.478 0 0 1-.29-.84 4.778 4.778 0 0 0 1.78-2.938Z" style="opacity: 0.4;" fill="#25314C"></path><path d="M16 10.75H8a.75.75 0 0 1 0-1.5h8a.75.75 0 0 1 0 1.5ZM13.75 14a.75.75 0 0 0-.75-.75H8a.75.75 0 0 0 0 1.5h5a.75.75 0 0 0 .75-.75Z" fill="#25314C"></path></g></svg>