<svg width="60" height="63" viewBox="0 0 60 63" fill="none" xmlns="http://www.w3.org/2000/svg">
<g clip-path="url(#clip0_5437_15143)">
<path d="M45.307 18.2123C45.3063 17.9875 45.3011 17.7638 45.291 17.5412V4.85126L41.7828 8.35951C38.9115 4.84491 34.5435 2.6001 29.6509 2.6001C24.5594 2.6001 20.0361 5.03039 17.1768 8.79407L22.9272 14.605C23.4908 13.5628 24.2913 12.6676 25.2566 11.9915C26.2606 11.208 27.683 10.5675 29.6508 10.5675C29.8885 10.5675 30.072 10.5953 30.2068 10.6476C32.6448 10.84 34.7581 12.1855 36.0024 14.1384L31.9319 18.2088C37.0877 18.1886 42.912 18.1767 45.3066 18.2114" fill="#1C3AA9"/>
<path d="M29.5585 2.60059C29.3337 2.60133 29.11 2.60652 28.8874 2.6166H16.1975L19.7057 6.12485C16.1911 8.99616 13.9463 13.3642 13.9463 18.2567C13.9463 23.3482 16.3766 27.8715 20.1403 30.7309L25.9512 24.9804C24.909 24.4169 24.0138 23.6163 23.3377 22.651C22.5543 21.6471 21.9137 20.2246 21.9137 18.2569C21.9137 18.0192 21.9414 17.8357 21.9938 17.7009C22.1862 15.2629 23.5317 13.1496 25.4846 11.9052L29.555 15.9757C29.5348 10.82 29.5229 4.99559 29.5576 2.60103" fill="#4285F4"/>
<path d="M13.9473 18.2563C13.948 18.4812 13.9532 18.7049 13.9633 18.9275V31.6174L17.4715 28.1092C20.3428 31.6238 24.7108 33.8686 29.6034 33.8686C34.6949 33.8686 39.2182 31.4383 42.0776 27.6746L36.3271 21.8637C35.7636 22.9059 34.963 23.8011 33.9977 24.4772C32.9938 25.2606 31.5713 25.9012 29.6036 25.9012C29.3658 25.9012 29.1824 25.8734 29.0476 25.8211C26.6095 25.6287 24.4962 24.2832 23.2519 22.3303L27.3224 18.2599C22.1666 18.2801 16.3423 18.292 13.9477 18.2573" fill="#ABABAB"/>
<path d="M16.589 39.9317C16.2077 39.9317 15.8658 40.0041 15.5633 40.1487C15.2609 40.2901 15.0044 40.4923 14.794 40.7553C14.5869 41.0183 14.4275 41.3372 14.3157 41.7119C14.2072 42.0834 14.1529 42.4993 14.1529 42.9595V44.2861C14.1529 44.7496 14.2072 45.1671 14.3157 45.5386C14.4274 45.9101 14.5852 46.2274 14.7891 46.4904C14.9929 46.7534 15.2395 46.9555 15.5288 47.0969C15.8181 47.2383 16.1435 47.309 16.5052 47.309C16.8767 47.309 17.2022 47.2547 17.4816 47.1462C17.7643 47.0378 18.001 46.8816 18.1917 46.6778C18.3824 46.4707 18.5287 46.2208 18.6306 45.9282C18.7358 45.6356 18.7983 45.3036 18.818 44.9321H17.9057C17.8827 45.2181 17.8432 45.463 17.7873 45.6668C17.7314 45.8674 17.6493 46.0334 17.5408 46.1649C17.4356 46.2931 17.2975 46.3884 17.1265 46.4509C16.9589 46.5101 16.7517 46.5397 16.5052 46.5397C16.2422 46.5397 16.0186 46.4821 15.8345 46.3671C15.6504 46.2487 15.5008 46.0876 15.3858 45.8838C15.274 45.68 15.1918 45.4416 15.1392 45.1688C15.0899 44.8959 15.0652 44.6017 15.0652 44.286V42.9497C15.0652 42.6111 15.0948 42.3036 15.154 42.0275C15.2165 41.7513 15.3102 41.5163 15.4351 41.3223C15.56 41.1283 15.7178 40.9787 15.9085 40.8736C16.0992 40.7651 16.326 40.7108 16.589 40.7108C16.8093 40.7108 16.9983 40.7437 17.1561 40.8094C17.3139 40.8719 17.4454 40.9705 17.5506 41.1053C17.6558 41.2368 17.7364 41.4045 17.7923 41.6083C17.8481 41.8121 17.886 42.0554 17.9057 42.3381H18.818C18.8016 41.9502 18.7407 41.6067 18.6355 41.3075C18.5303 41.0083 18.384 40.7568 18.1966 40.553C18.0092 40.3492 17.7807 40.1946 17.5112 40.0894C17.2449 39.9842 16.9375 39.9316 16.589 39.9316L16.589 39.9317ZM38.8591 39.9317C38.4778 39.9317 38.1359 40.0041 37.8334 40.1487C37.5309 40.2901 37.2745 40.4923 37.0641 40.7553C36.857 41.0183 36.6975 41.3372 36.5857 41.7119C36.4773 42.0834 36.423 42.4993 36.423 42.9595V44.2861C36.423 44.7496 36.4773 45.1671 36.5857 45.5386C36.6975 45.9101 36.8553 46.2274 37.0592 46.4904C37.263 46.7534 37.5096 46.9555 37.7989 47.0969C38.0882 47.2383 38.4136 47.309 38.7753 47.309C39.1468 47.309 39.4722 47.2547 39.7517 47.1462C40.0344 47.0378 40.2711 46.8816 40.4618 46.6778C40.6525 46.4707 40.7988 46.2208 40.9007 45.9282C41.0059 45.6356 41.0684 45.3036 41.0881 44.9321H40.1758C40.1528 45.2181 40.1133 45.463 40.0575 45.6668C40.0016 45.8674 39.9194 46.0334 39.8109 46.1649C39.7057 46.2931 39.5676 46.3884 39.3966 46.4509C39.229 46.5101 39.0218 46.5397 38.7753 46.5397C38.5123 46.5397 38.2887 46.4821 38.1046 46.3671C37.9205 46.2487 37.771 46.0876 37.6559 45.8838C37.5441 45.68 37.4619 45.4416 37.4093 45.1688C37.36 44.8959 37.3354 44.6017 37.3354 44.286V42.9497C37.3354 42.6111 37.365 42.3036 37.4241 42.0275C37.4866 41.7513 37.5803 41.5163 37.7052 41.3223C37.8301 41.1283 37.9879 40.9787 38.1786 40.8736C38.3693 40.7651 38.5961 40.7108 38.8591 40.7108C39.0794 40.7108 39.2684 40.7437 39.4262 40.8094C39.584 40.8719 39.7155 40.9705 39.8207 41.1053C39.9259 41.2368 40.0065 41.4045 40.0623 41.6083C40.1182 41.8121 40.156 42.0554 40.1758 42.3381H41.088C41.0716 41.9502 41.0108 41.6067 40.9056 41.3075C40.8004 41.0083 40.6541 40.7568 40.4667 40.553C40.2793 40.3491 40.0508 40.1946 39.7812 40.0894C39.515 39.9842 39.2076 39.9316 38.8591 39.9316L38.8591 39.9317ZM21.787 40.0304L19.4742 47.2103H20.4013L20.9585 45.3364H23.3847L23.9518 47.2103H24.8789L22.5612 40.0304H21.787ZM25.8552 40.0304V47.2103H26.7576V44.3994H28.1433C28.4885 44.3994 28.7942 44.3518 29.0605 44.2564C29.3268 44.1578 29.5504 44.0164 29.7312 43.8323C29.9153 43.6482 30.0534 43.4214 30.1454 43.1518C30.2407 42.8789 30.2884 42.5699 30.2884 42.2247C30.2884 41.9058 30.2408 41.6132 30.1454 41.3469C30.0534 41.0773 29.9169 40.8456 29.7361 40.6516C29.5553 40.4543 29.3301 40.3015 29.0605 40.193C28.7942 40.0845 28.4885 40.0303 28.1433 40.0303L25.8552 40.0304ZM30.9788 40.0304V40.8095H32.8626V47.2103H33.765V40.8095H35.6537V40.0304H30.9788ZM42.3061 40.0304V47.2103H43.2085V43.8915H46.0983V47.2103H47.0056V40.0304H46.0983V43.1174H43.2085V40.0304H42.3061ZM50.428 40.0304L48.1152 47.2103H49.0423L49.5995 45.3364H52.0257L52.5928 47.2103H53.5199L51.2022 40.0304H50.428ZM26.7575 40.8095H28.1432C28.3635 40.8095 28.5509 40.8489 28.7054 40.9279C28.8632 41.0067 28.9914 41.1119 29.09 41.2435C29.1919 41.375 29.2659 41.5278 29.3119 41.7021C29.3613 41.873 29.3859 42.0505 29.3859 42.2347C29.3859 42.4385 29.3613 42.6259 29.3119 42.7968C29.2659 42.9645 29.1919 43.1108 29.09 43.2357C28.9914 43.3573 28.8632 43.4527 28.7054 43.5217C28.5509 43.5908 28.3635 43.6253 28.1432 43.6253H26.7575V40.8095ZM22.1715 41.2928L23.1528 44.5573H21.1951L22.1715 41.2928ZM50.8125 41.2928L51.7938 44.5573H49.8361L50.8125 41.2928ZM8.33464 41.7761C8.1078 41.7761 7.91218 41.8336 7.7478 41.9487C7.58671 42.0637 7.45192 42.2199 7.34344 42.4171L7.32864 41.8747H6.48047V47.2103H7.35332V43.3934C7.43551 43.1665 7.55222 42.9874 7.70345 42.8559C7.85796 42.7244 8.05357 42.6586 8.29029 42.6586C8.3659 42.6586 8.4333 42.662 8.49247 42.6685C8.55165 42.6718 8.61575 42.68 8.68479 42.6931L8.67986 41.8449C8.66671 41.8383 8.64534 41.8317 8.61575 41.8252C8.58945 41.8153 8.55986 41.8071 8.52699 41.8005C8.49411 41.794 8.45959 41.789 8.42343 41.7857C8.39055 41.7791 8.36097 41.7759 8.33467 41.7759L8.33464 41.7761ZM11.2688 41.7761C11.0156 41.7761 10.7707 41.8204 10.534 41.9092C10.2973 41.998 10.0869 42.1443 9.90283 42.3481C9.72201 42.5486 9.57572 42.8116 9.46394 43.1371C9.35216 43.4593 9.29627 43.8554 9.29627 44.3256V44.9272C9.29627 45.3348 9.34394 45.6883 9.43928 45.9874C9.53462 46.2866 9.67105 46.5348 9.84857 46.7321C10.0294 46.926 10.248 47.0707 10.5044 47.166C10.7609 47.2614 11.0485 47.3091 11.3674 47.3091C11.5976 47.3091 11.803 47.286 11.9838 47.24C12.1679 47.194 12.3307 47.1348 12.4721 47.0625C12.6134 46.9869 12.7351 46.9014 12.837 46.8061C12.9389 46.7107 13.026 46.6121 13.0983 46.5102L12.6447 45.9579C12.5723 46.0466 12.4951 46.1288 12.4129 46.2044C12.3307 46.2768 12.2403 46.3409 12.1417 46.3968C12.043 46.4494 11.9345 46.4905 11.8162 46.52C11.6978 46.5496 11.5647 46.5644 11.4168 46.5644C11.0124 46.5644 10.7017 46.4346 10.4847 46.1748C10.271 45.9151 10.1642 45.4993 10.1642 44.9272V44.8039H13.1427V44.296C13.1427 43.8884 13.1082 43.5283 13.0392 43.216C12.9701 42.9037 12.86 42.6407 12.7088 42.427C12.5575 42.2133 12.3636 42.0522 12.1269 41.9437C11.8902 41.832 11.6042 41.7761 11.2688 41.7761L11.2688 41.7761ZM11.2688 42.5256C11.4595 42.5256 11.6173 42.5601 11.7422 42.6292C11.8671 42.6982 11.9658 42.7952 12.0381 42.9201C12.1137 43.0451 12.1679 43.1947 12.2008 43.3689C12.237 43.5398 12.26 43.7289 12.2699 43.936V44.0543H10.1691C10.1823 43.7552 10.2184 43.5069 10.2776 43.3097C10.3368 43.1124 10.414 42.9563 10.5094 42.8412C10.608 42.7229 10.7214 42.6407 10.8496 42.5947C10.9778 42.5486 11.1176 42.5256 11.2688 42.5256L11.2688 42.5256Z" fill="#A6A6A6"/>
</g>
<path d="M4.98047 56.8789H3.5V56.1016H4.98047C5.23828 56.1016 5.44661 56.0599 5.60547 55.9766C5.76432 55.8932 5.88021 55.7786 5.95312 55.6328C6.02865 55.4844 6.06641 55.3151 6.06641 55.125C6.06641 54.9453 6.02865 54.7773 5.95312 54.6211C5.88021 54.4622 5.76432 54.3346 5.60547 54.2383C5.44661 54.1419 5.23828 54.0938 4.98047 54.0938H3.80078V59H2.82031V53.3125H4.98047C5.42057 53.3125 5.79427 53.3906 6.10156 53.5469C6.41146 53.7005 6.64714 53.9141 6.80859 54.1875C6.97005 54.4583 7.05078 54.7682 7.05078 55.1172C7.05078 55.4844 6.97005 55.7995 6.80859 56.0625C6.64714 56.3255 6.41146 56.5273 6.10156 56.668C5.79427 56.8086 5.42057 56.8789 4.98047 56.8789ZM8.78125 55.5781V59H7.83984V54.7734H8.73828L8.78125 55.5781ZM10.0742 54.7461L10.0664 55.6211C10.0091 55.6107 9.94661 55.6029 9.87891 55.5977C9.8138 55.5924 9.7487 55.5898 9.68359 55.5898C9.52214 55.5898 9.38021 55.6133 9.25781 55.6602C9.13542 55.7044 9.03255 55.7695 8.94922 55.8555C8.86849 55.9388 8.80599 56.0404 8.76172 56.1602C8.71745 56.2799 8.69141 56.4141 8.68359 56.5625L8.46875 56.5781C8.46875 56.3125 8.49479 56.0664 8.54688 55.8398C8.59896 55.6133 8.67708 55.4141 8.78125 55.2422C8.88802 55.0703 9.02083 54.9362 9.17969 54.8398C9.34115 54.7435 9.52734 54.6953 9.73828 54.6953C9.79557 54.6953 9.85677 54.7005 9.92188 54.7109C9.98958 54.7214 10.0404 54.7331 10.0742 54.7461ZM11.6719 54.7734V59H10.7266V54.7734H11.6719ZM10.6641 53.6641C10.6641 53.5208 10.7109 53.4023 10.8047 53.3086C10.901 53.2122 11.0339 53.1641 11.2031 53.1641C11.3698 53.1641 11.5013 53.2122 11.5977 53.3086C11.694 53.4023 11.7422 53.5208 11.7422 53.6641C11.7422 53.8047 11.694 53.9219 11.5977 54.0156C11.5013 54.1094 11.3698 54.1562 11.2031 54.1562C11.0339 54.1562 10.901 54.1094 10.8047 54.0156C10.7109 53.9219 10.6641 53.8047 10.6641 53.6641ZM14.0781 58.2539L15.1133 54.7734H16.0898L14.6211 59H14.0117L14.0781 58.2539ZM13.2852 54.7734L14.3398 58.2695L14.3906 59H13.7812L12.3047 54.7734H13.2852ZM18.9922 58.1523V56.1367C18.9922 55.9857 18.9648 55.8555 18.9102 55.7461C18.8555 55.6367 18.7721 55.5521 18.6602 55.4922C18.5508 55.4323 18.4128 55.4023 18.2461 55.4023C18.0924 55.4023 17.9596 55.4284 17.8477 55.4805C17.7357 55.5326 17.6484 55.6029 17.5859 55.6914C17.5234 55.7799 17.4922 55.8802 17.4922 55.9922H16.5547C16.5547 55.8255 16.5951 55.6641 16.6758 55.5078C16.7565 55.3516 16.8737 55.2122 17.0273 55.0898C17.181 54.9674 17.3646 54.8711 17.5781 54.8008C17.7917 54.7305 18.0312 54.6953 18.2969 54.6953C18.6146 54.6953 18.8958 54.7487 19.1406 54.8555C19.388 54.9622 19.582 55.1237 19.7227 55.3398C19.8659 55.5534 19.9375 55.8216 19.9375 56.1445V58.0234C19.9375 58.2161 19.9505 58.3893 19.9766 58.543C20.0052 58.694 20.0456 58.8255 20.0977 58.9375V59H19.1328C19.0885 58.8984 19.0534 58.7695 19.0273 58.6133C19.0039 58.4544 18.9922 58.3008 18.9922 58.1523ZM19.1289 56.4297L19.1367 57.0117H18.4609C18.2865 57.0117 18.1328 57.0286 18 57.0625C17.8672 57.0938 17.7565 57.1406 17.668 57.2031C17.5794 57.2656 17.513 57.3411 17.4688 57.4297C17.4245 57.5182 17.4023 57.6185 17.4023 57.7305C17.4023 57.8424 17.4284 57.9453 17.4805 58.0391C17.5326 58.1302 17.6081 58.2018 17.707 58.2539C17.8086 58.306 17.931 58.332 18.0742 58.332C18.2669 58.332 18.4349 58.293 18.5781 58.2148C18.724 58.1341 18.8385 58.0365 18.9219 57.9219C19.0052 57.8047 19.0495 57.694 19.0547 57.5898L19.3594 58.0078C19.3281 58.1146 19.2747 58.2292 19.1992 58.3516C19.1237 58.474 19.0247 58.5911 18.9023 58.7031C18.7826 58.8125 18.638 58.9023 18.4688 58.9727C18.3021 59.043 18.1094 59.0781 17.8906 59.0781C17.6146 59.0781 17.3685 59.0234 17.1523 58.9141C16.9362 58.8021 16.7669 58.6523 16.6445 58.4648C16.5221 58.2747 16.4609 58.0599 16.4609 57.8203C16.4609 57.5964 16.5026 57.3984 16.5859 57.2266C16.6719 57.0521 16.7969 56.9062 16.9609 56.7891C17.1276 56.6719 17.3307 56.5833 17.5703 56.5234C17.8099 56.4609 18.0833 56.4297 18.3906 56.4297H19.1289ZM22.6484 58.3281C22.8021 58.3281 22.9401 58.2982 23.0625 58.2383C23.1875 58.1758 23.2878 58.0898 23.3633 57.9805C23.4414 57.8711 23.4844 57.7448 23.4922 57.6016H24.3789C24.3737 57.875 24.293 58.1237 24.1367 58.3477C23.9805 58.5716 23.7734 58.75 23.5156 58.8828C23.2578 59.013 22.9727 59.0781 22.6602 59.0781C22.3372 59.0781 22.056 59.0234 21.8164 58.9141C21.5768 58.8021 21.3776 58.6484 21.2188 58.4531C21.0599 58.2578 20.9401 58.0326 20.8594 57.7773C20.7812 57.5221 20.7422 57.2487 20.7422 56.957V56.8203C20.7422 56.5286 20.7812 56.2552 20.8594 56C20.9401 55.7422 21.0599 55.5156 21.2188 55.3203C21.3776 55.125 21.5768 54.9727 21.8164 54.8633C22.056 54.7513 22.3359 54.6953 22.6562 54.6953C22.9948 54.6953 23.2917 54.763 23.5469 54.8984C23.8021 55.0312 24.0026 55.2174 24.1484 55.457C24.2969 55.694 24.3737 55.9701 24.3789 56.2852H23.4922C23.4844 56.1289 23.4453 55.9883 23.375 55.8633C23.3073 55.7357 23.2109 55.6341 23.0859 55.5586C22.9635 55.4831 22.8164 55.4453 22.6445 55.4453C22.4544 55.4453 22.2969 55.4844 22.1719 55.5625C22.0469 55.638 21.9492 55.7422 21.8789 55.875C21.8086 56.0052 21.7578 56.1523 21.7266 56.3164C21.6979 56.4779 21.6836 56.6458 21.6836 56.8203V56.957C21.6836 57.1315 21.6979 57.3008 21.7266 57.4648C21.7552 57.6289 21.8047 57.776 21.875 57.9062C21.9479 58.0339 22.0469 58.1367 22.1719 58.2148C22.2969 58.2904 22.4557 58.3281 22.6484 58.3281ZM26.3281 58.5391L27.4766 54.7734H28.4844L26.7891 59.6445C26.75 59.7487 26.6992 59.862 26.6367 59.9844C26.5742 60.1068 26.4922 60.2227 26.3906 60.332C26.2917 60.444 26.168 60.5339 26.0195 60.6016C25.8711 60.6719 25.6914 60.707 25.4805 60.707C25.3971 60.707 25.3164 60.6992 25.2383 60.6836C25.1628 60.6706 25.0911 60.6562 25.0234 60.6406L25.0195 59.9219C25.0456 59.9245 25.0768 59.9271 25.1133 59.9297C25.1523 59.9323 25.1836 59.9336 25.207 59.9336C25.3633 59.9336 25.4935 59.9141 25.5977 59.875C25.7018 59.8385 25.7865 59.7786 25.8516 59.6953C25.9193 59.612 25.9766 59.5 26.0234 59.3594L26.3281 58.5391ZM25.6797 54.7734L26.6836 57.9375L26.8516 58.9297L26.1992 59.0977L24.6641 54.7734H25.6797ZM32.9102 56.1953V56.9453H30.8438V56.1953H32.9102ZM37.9727 53.3125V59H37V53.3125H37.9727ZM39.7578 53.3125V54.0938H35.2305V53.3125H39.7578ZM41.9023 59.0781C41.5898 59.0781 41.3073 59.0273 41.0547 58.9258C40.8047 58.8216 40.5911 58.6771 40.4141 58.4922C40.2396 58.3073 40.1055 58.0898 40.0117 57.8398C39.918 57.5898 39.8711 57.3203 39.8711 57.0312V56.875C39.8711 56.5443 39.9193 56.2448 40.0156 55.9766C40.112 55.7083 40.2461 55.4792 40.418 55.2891C40.5898 55.0964 40.793 54.9492 41.0273 54.8477C41.2617 54.7461 41.5156 54.6953 41.7891 54.6953C42.0911 54.6953 42.3555 54.7461 42.582 54.8477C42.8086 54.9492 42.9961 55.0924 43.1445 55.2773C43.2956 55.4596 43.4076 55.6771 43.4805 55.9297C43.556 56.1823 43.5938 56.4609 43.5938 56.7656V57.168H40.3281V56.4922H42.6641V56.418C42.6589 56.2487 42.625 56.0898 42.5625 55.9414C42.5026 55.793 42.4102 55.6732 42.2852 55.582C42.1602 55.4909 41.9935 55.4453 41.7852 55.4453C41.6289 55.4453 41.4896 55.4792 41.3672 55.5469C41.2474 55.612 41.1471 55.707 41.0664 55.832C40.9857 55.957 40.9232 56.1081 40.8789 56.2852C40.8372 56.4596 40.8164 56.6562 40.8164 56.875V57.0312C40.8164 57.2161 40.8411 57.388 40.8906 57.5469C40.9427 57.7031 41.0182 57.8398 41.1172 57.957C41.2161 58.0742 41.3359 58.1667 41.4766 58.2344C41.6172 58.2995 41.7773 58.332 41.957 58.332C42.1836 58.332 42.3854 58.2865 42.5625 58.1953C42.7396 58.1042 42.8932 57.9753 43.0234 57.8086L43.5195 58.2891C43.4284 58.4219 43.3099 58.5495 43.1641 58.6719C43.0182 58.7917 42.8398 58.8893 42.6289 58.9648C42.4206 59.0404 42.1784 59.0781 41.9023 59.0781ZM45.2734 55.5781V59H44.332V54.7734H45.2305L45.2734 55.5781ZM46.5664 54.7461L46.5586 55.6211C46.5013 55.6107 46.4388 55.6029 46.3711 55.5977C46.306 55.5924 46.2409 55.5898 46.1758 55.5898C46.0143 55.5898 45.8724 55.6133 45.75 55.6602C45.6276 55.7044 45.5247 55.7695 45.4414 55.8555C45.3607 55.9388 45.2982 56.0404 45.2539 56.1602C45.2096 56.2799 45.1836 56.4141 45.1758 56.5625L44.9609 56.5781C44.9609 56.3125 44.987 56.0664 45.0391 55.8398C45.0911 55.6133 45.1693 55.4141 45.2734 55.2422C45.3802 55.0703 45.513 54.9362 45.6719 54.8398C45.8333 54.7435 46.0195 54.6953 46.2305 54.6953C46.2878 54.6953 46.349 54.7005 46.4141 54.7109C46.4818 54.7214 46.5326 54.7331 46.5664 54.7461ZM48.0977 55.6328V59H47.1562V54.7734H48.043L48.0977 55.6328ZM47.9453 56.7305L47.625 56.7266C47.625 56.4349 47.6615 56.1654 47.7344 55.918C47.8073 55.6706 47.9141 55.4557 48.0547 55.2734C48.1953 55.0885 48.3698 54.9466 48.5781 54.8477C48.7891 54.7461 49.0326 54.6953 49.3086 54.6953C49.5013 54.6953 49.6771 54.724 49.8359 54.7812C49.9974 54.8359 50.1367 54.9232 50.2539 55.043C50.3737 55.1628 50.4648 55.3164 50.5273 55.5039C50.5924 55.6914 50.625 55.918 50.625 56.1836V59H49.6836V56.2656C49.6836 56.0599 49.6523 55.8984 49.5898 55.7812C49.5299 55.6641 49.4427 55.5807 49.3281 55.5312C49.2161 55.4792 49.082 55.4531 48.9258 55.4531C48.7487 55.4531 48.5977 55.487 48.4727 55.5547C48.3503 55.6224 48.25 55.7148 48.1719 55.832C48.0938 55.9492 48.0365 56.0846 48 56.2383C47.9635 56.3919 47.9453 56.556 47.9453 56.7305ZM50.5664 56.4805L50.125 56.5781C50.125 56.3229 50.1602 56.082 50.2305 55.8555C50.3034 55.6263 50.4089 55.4258 50.5469 55.2539C50.6875 55.0794 50.8607 54.9427 51.0664 54.8438C51.2721 54.7448 51.5078 54.6953 51.7734 54.6953C51.9896 54.6953 52.1823 54.7253 52.3516 54.7852C52.5234 54.8424 52.6693 54.9336 52.7891 55.0586C52.9089 55.1836 53 55.3464 53.0625 55.5469C53.125 55.7448 53.1562 55.9844 53.1562 56.2656V59H52.2109V56.2617C52.2109 56.0482 52.1797 55.8828 52.1172 55.7656C52.0573 55.6484 51.9714 55.5677 51.8594 55.5234C51.7474 55.4766 51.6133 55.4531 51.457 55.4531C51.3112 55.4531 51.1823 55.4805 51.0703 55.5352C50.9609 55.5872 50.8685 55.6615 50.793 55.7578C50.7174 55.8516 50.6602 55.9596 50.6211 56.082C50.5846 56.2044 50.5664 56.3372 50.5664 56.4805ZM56.4961 57.8555C56.4961 57.7617 56.4727 57.6771 56.4258 57.6016C56.3789 57.5234 56.2891 57.4531 56.1562 57.3906C56.026 57.3281 55.8333 57.2708 55.5781 57.2188C55.3542 57.1693 55.1484 57.1107 54.9609 57.043C54.776 56.9727 54.6172 56.888 54.4844 56.7891C54.3516 56.6901 54.2487 56.5729 54.1758 56.4375C54.1029 56.3021 54.0664 56.1458 54.0664 55.9688C54.0664 55.7969 54.1042 55.6341 54.1797 55.4805C54.2552 55.3268 54.3633 55.1914 54.5039 55.0742C54.6445 54.957 54.8151 54.8646 55.0156 54.7969C55.2188 54.7292 55.4453 54.6953 55.6953 54.6953C56.0495 54.6953 56.3529 54.7552 56.6055 54.875C56.8607 54.9922 57.056 55.1523 57.1914 55.3555C57.3268 55.556 57.3945 55.7826 57.3945 56.0352H56.4531C56.4531 55.9232 56.4245 55.819 56.3672 55.7227C56.3125 55.6237 56.2292 55.5443 56.1172 55.4844C56.0052 55.4219 55.8646 55.3906 55.6953 55.3906C55.5339 55.3906 55.3997 55.4167 55.293 55.4688C55.1888 55.5182 55.1107 55.5833 55.0586 55.6641C55.0091 55.7448 54.9844 55.8333 54.9844 55.9297C54.9844 56 54.9974 56.0638 55.0234 56.1211C55.0521 56.1758 55.099 56.2266 55.1641 56.2734C55.2292 56.3177 55.3177 56.3594 55.4297 56.3984C55.5443 56.4375 55.6875 56.4753 55.8594 56.5117C56.1823 56.5794 56.4596 56.6667 56.6914 56.7734C56.9258 56.8776 57.1055 57.013 57.2305 57.1797C57.3555 57.3438 57.418 57.5521 57.418 57.8047C57.418 57.9922 57.3776 58.1641 57.2969 58.3203C57.2188 58.474 57.1042 58.6081 56.9531 58.7227C56.8021 58.8346 56.6211 58.9219 56.4102 58.9844C56.2018 59.0469 55.9674 59.0781 55.707 59.0781C55.3242 59.0781 55 59.0104 54.7344 58.875C54.4688 58.737 54.2669 58.5612 54.1289 58.3477C53.9935 58.1315 53.9258 57.9076 53.9258 57.6758H54.8359C54.8464 57.8503 54.8945 57.9896 54.9805 58.0938C55.069 58.1953 55.1784 58.2695 55.3086 58.3164C55.4414 58.3607 55.5781 58.3828 55.7188 58.3828C55.888 58.3828 56.0299 58.3607 56.1445 58.3164C56.2591 58.2695 56.3464 58.207 56.4062 58.1289C56.4661 58.0482 56.4961 57.957 56.4961 57.8555Z" fill="#A6A6A6"/>
<defs>
<clipPath id="clip0_5437_15143">
<rect width="48" height="46" fill="white" transform="translate(6 2)"/>
</clipPath>
</defs>
</svg>
