<svg width="127" height="47" viewBox="0 0 127 47" fill="none" xmlns="http://www.w3.org/2000/svg">
<g clip-path="url(#clip0_714_2034)">
<rect x="79.4834" width="46.742" height="46.742" rx="10.3871" fill="#202E67"/>
<path d="M125.552 24.202L130.209 33.5171C131.06 35.2189 132.324 36.68 133.886 37.7666L209.971 90.6952L127.401 46.658C125.621 45.7085 124.125 44.3024 123.068 42.584L118.496 35.1539C116.659 32.1695 113.549 30.1985 110.067 29.8116L100.498 28.7484C97.0932 28.3701 94.0405 26.4771 92.188 23.5955L87.2261 15.877C85.7161 13.5281 83.3946 11.8169 80.704 11.0695L67.4975 7.40101C65.4799 6.84059 63.6563 5.73402 62.2276 4.20327L50.0398 -8.85511C49.027 -9.94025 48.3291 -11.2809 48.0211 -12.7329C46.2157 -21.2443 57.1981 -26.3017 62.4918 -19.3968L66.6867 -13.9252L72.2845 -4.12906C74.4281 -0.377678 78.5125 1.83483 82.8257 1.58111L86.934 1.33945C91.8203 1.05202 96.3423 3.92356 98.1602 8.46824L99.0799 10.7674C100.807 15.0848 104.988 17.9158 109.638 17.9158H115.38C119.688 17.9158 123.625 20.3494 125.552 24.202Z" fill="url(#paint0_linear_714_2034)"/>
<g opacity="0.7" filter="url(#filter0_f_714_2034)">
<circle cx="126.875" cy="-1.94759" r="11.0363" fill="#C8D2FC"/>
</g>
</g>
<path d="M65.4847 38.9142V14.0021C68.6122 13.1532 71.6936 15.501 71.6936 18.7329V37.1946L65.4847 38.9142Z" fill="#4C6EF5"/>
<path d="M53.3289 44.6238L49.9829 37.9172L55.7089 35.5785C56.2608 35.3721 56.8127 35.1314 57.3646 34.8906V20.1704L63.2286 19.0355V34.8562C63.2286 38.3987 61.228 41.3909 58.1235 42.6634L53.3289 44.6238Z" fill="#4C6EF5"/>
<path d="M24.9702 15.1146C23.4271 15.1146 22.1762 13.8674 22.1762 12.3288C22.1762 10.7902 23.4271 9.54297 24.9702 9.54297H25.1772C26.7203 9.54297 27.9712 10.7902 27.9712 12.3288C27.9712 13.8674 26.7203 15.1146 25.1772 15.1146H24.9702ZM18.8303 37.9516C17.692 37.9516 16.7606 36.1631 16.7606 33.962C16.7606 31.7608 17.692 29.9724 18.8303 29.9724H24.5218L22.2797 19.9984L28.3161 17.0406L30.3858 26.1892C31.938 33.1366 27.8677 37.9516 21.7623 37.9516H18.8303Z" fill="#4C6EF5"/>
<path d="M0 29.9724H6.79531C7.89911 29.9724 8.65798 29.8004 9.24438 29.4221L7.3817 18.7603L13.1767 15.7681L15.4188 28.5967C15.5568 29.4221 16.2467 29.9724 17.0745 29.9724H18.8682C20.0065 29.9724 20.9378 31.7608 20.9378 33.962C20.9378 36.1631 20.0065 37.9516 18.8682 37.9516H17.04C15.0394 37.9516 13.2457 37.4013 11.8314 35.5785C10.2447 37.4013 8.24405 37.9516 5.96745 37.9516H0.758867L0 29.9724Z" fill="#4C6EF5"/>
<path d="M63.402 9.54297L69.5567 6C70.2108 7.12972 69.8226 8.57428 68.6896 9.22652L64.5865 11.5885L63.402 9.54297Z" fill="#4C6EF5"/>
<path d="M38.0596 11.4707L44.2142 7.92773C44.8683 9.05745 44.4801 10.502 43.3471 11.1543L39.244 13.5162L38.0596 11.4707Z" fill="#364EAE"/>
<path d="M49.3859 21.959L49.4204 34.9939C49.4204 38.5364 47.5577 41.8725 44.1428 42.8699L38.1753 44.6239L36.0712 38.4676L44.0393 36.1289L43.9358 35.6474L41.2453 36.4384C40.6244 36.6104 40.0725 36.6792 39.4171 36.6792H37.8304C34.9329 36.6792 32.6218 34.4436 32.2424 31.417L31.8629 28.4936C31.1386 22.8188 33.8636 18.6916 39.3481 17.5223L45.3501 16.2153L47.5922 18.0726C48.7995 19.0699 49.3859 20.4457 49.3859 21.959ZM38.1408 29.8006H43.2804V23.2659L39.0032 24.1601C38.0719 24.3665 37.52 25.1231 37.6579 26.0861L38.1408 29.8006Z" fill="#364EAE"/>
<path d="M13.8162 43.2802L13.8065 42.5726H13.9228L15.5512 40.9151H16.2588L14.5238 42.6696H14.4753L13.8162 43.2802ZM13.2831 44.6372V39.6744H13.855V44.6372H13.2831ZM15.6482 44.6372L14.1942 42.7956L14.6013 42.3982L16.3751 44.6372H15.6482Z" fill="#364EAE"/>
<path d="M9.86302 42.3979V44.637H9.29114V40.9149H9.84364V41.4965H9.8921C9.97934 41.3075 10.1118 41.1556 10.2895 41.0409C10.4672 40.9246 10.6966 40.8665 10.9777 40.8665C11.2297 40.8665 11.4502 40.9182 11.6393 41.0215C11.8283 41.1233 11.9753 41.2784 12.0803 41.4868C12.1853 41.6936 12.2378 41.9553 12.2378 42.2719V44.637H11.6659V42.3107C11.6659 42.0183 11.59 41.7905 11.4381 41.6274C11.2863 41.4626 11.0779 41.3802 10.8129 41.3802C10.6304 41.3802 10.4672 41.4198 10.3234 41.4989C10.1813 41.5781 10.069 41.6936 9.98661 41.8454C9.90422 41.9973 9.86302 42.1815 9.86302 42.3979Z" fill="#364EAE"/>
<path d="M6.54285 44.7243C6.30699 44.7243 6.09294 44.6798 5.90069 44.591C5.70845 44.5005 5.55578 44.3705 5.4427 44.2008C5.32961 44.0296 5.27307 43.8228 5.27307 43.5805C5.27307 43.3672 5.31507 43.1944 5.39908 43.0619C5.48309 42.9278 5.59536 42.8228 5.73591 42.7469C5.87646 42.671 6.03155 42.6144 6.20117 42.5773C6.37242 42.5385 6.54447 42.5078 6.71732 42.4852C6.94349 42.4561 7.12685 42.4343 7.2674 42.4198C7.40956 42.4036 7.51296 42.3769 7.57758 42.3398C7.64381 42.3026 7.67693 42.238 7.67693 42.1459V42.1265C7.67693 41.8874 7.6115 41.7017 7.48065 41.5692C7.35141 41.4367 7.15512 41.3705 6.8918 41.3705C6.61878 41.3705 6.40473 41.4303 6.24964 41.5498C6.09455 41.6694 5.9855 41.797 5.9225 41.9327L5.37969 41.7388C5.47662 41.5127 5.60586 41.3366 5.76741 41.2106C5.93058 41.0829 6.10828 40.9941 6.30053 40.944C6.49439 40.8923 6.68501 40.8665 6.87241 40.8665C6.99196 40.8665 7.12928 40.881 7.28436 40.9101C7.44107 40.9375 7.59212 40.9949 7.73751 41.0821C7.88452 41.1694 8.00649 41.301 8.10342 41.4771C8.20035 41.6532 8.24881 41.8891 8.24881 42.1847V44.637H7.67693V44.133H7.64785C7.60908 44.2138 7.54446 44.3002 7.45399 44.3923C7.36352 44.4844 7.24317 44.5627 7.09293 44.6273C6.94269 44.6919 6.75933 44.7243 6.54285 44.7243ZM6.63009 44.2105C6.85626 44.2105 7.04689 44.1661 7.20197 44.0773C7.35868 43.9884 7.47661 43.8737 7.55577 43.7332C7.63654 43.5926 7.67693 43.4448 7.67693 43.2897V42.7663C7.6527 42.7954 7.59939 42.822 7.51699 42.8462C7.43622 42.8689 7.34252 42.8891 7.2359 42.9068C7.13089 42.923 7.02831 42.9375 6.92815 42.9504C6.8296 42.9618 6.74963 42.9714 6.68825 42.9795C6.53962 42.9989 6.40069 43.0304 6.27145 43.074C6.14382 43.116 6.04043 43.1798 5.96127 43.2655C5.88373 43.3495 5.84496 43.4642 5.84496 43.6096C5.84496 43.8083 5.91846 43.9585 6.06547 44.0603C6.2141 44.1605 6.4023 44.2105 6.63009 44.2105Z" fill="#364EAE"/>
<path d="M1.08594 44.6371V39.6743H2.82098C3.1667 39.6743 3.45183 39.7341 3.67638 39.8536C3.90094 39.9716 4.06814 40.1307 4.178 40.331C4.28785 40.5297 4.34278 40.7502 4.34278 40.9926C4.34278 41.2058 4.30481 41.3819 4.22888 41.5208C4.15457 41.6598 4.05603 41.7696 3.93325 41.8504C3.81209 41.9312 3.68042 41.9909 3.53826 42.0297V42.0782C3.69012 42.0879 3.84278 42.1412 3.99625 42.2381C4.14973 42.335 4.27816 42.474 4.38155 42.6549C4.48494 42.8358 4.53664 43.0572 4.53664 43.3189C4.53664 43.5677 4.48009 43.7914 4.36701 43.9901C4.25392 44.1888 4.07541 44.3463 3.83147 44.4626C3.58753 44.579 3.27009 44.6371 2.87914 44.6371H1.08594ZM1.6869 44.104H2.87914C3.2717 44.104 3.55038 44.0281 3.71516 43.8762C3.88155 43.7227 3.96475 43.537 3.96475 43.3189C3.96475 43.1509 3.92194 42.9958 3.83632 42.8536C3.7507 42.7098 3.62873 42.5951 3.47041 42.5095C3.31209 42.4223 3.12469 42.3787 2.90822 42.3787H1.6869V44.104ZM1.6869 41.8552H2.80159C2.98253 41.8552 3.14569 41.8197 3.29109 41.7486C3.4381 41.6775 3.55441 41.5774 3.64004 41.4481C3.72727 41.3189 3.77089 41.167 3.77089 40.9926C3.77089 40.7745 3.69496 40.5895 3.54311 40.4376C3.39125 40.2842 3.15054 40.2074 2.82098 40.2074H1.6869V41.8552Z" fill="#364EAE"/>
<defs>
<filter id="filter0_f_714_2034" x="94.5449" y="-34.2774" width="64.6597" height="64.6597" filterUnits="userSpaceOnUse" color-interpolation-filters="sRGB">
<feFlood flood-opacity="0" result="BackgroundImageFix"/>
<feBlend mode="normal" in="SourceGraphic" in2="BackgroundImageFix" result="shape"/>
<feGaussianBlur stdDeviation="10.6468" result="effect1_foregroundBlur_714_2034"/>
</filter>
<linearGradient id="paint0_linear_714_2034" x1="129.232" y1="-37.8059" x2="35.9829" y2="83.8722" gradientUnits="userSpaceOnUse">
<stop offset="0.263764" stop-color="#4C6EF5"/>
<stop offset="1" stop-color="#2A42B8"/>
</linearGradient>
<clipPath id="clip0_714_2034">
<rect x="79.4834" width="46.742" height="46.742" rx="10.3871" fill="white"/>
</clipPath>
</defs>
</svg>
